<svg width="41" height="40" viewBox="0 0 41 40" fill="none" xmlns="http://www.w3.org/2000/svg">
<path d="M40.7142 0.280323C40.5224 0.0924584 40.2607 -0.00936951 39.9886 0.0006793C39.7678 0.00843124 34.5105 0.215532 28.261 2.38024C23.2532 4.11303 19.0791 6.59394 15.8546 9.75405C15.1321 10.4622 14.4289 11.213 13.7562 11.9931C10.5679 10.1539 8.01302 10.7306 6.39789 11.5777C2.67905 13.5281 0.377197 18.8239 0.377197 22.6118C0.37749 22.9989 0.615478 23.3479 0.980321 23.4959C1.10112 23.545 1.22807 23.5689 1.35386 23.5689C1.60805 23.5689 1.85776 23.4715 2.04458 23.2886C4.0058 21.3666 6.42484 21.4868 7.21507 21.5886L7.55707 21.9237C6.88402 23.4933 6.34183 25.054 5.94418 26.5719C5.80062 27.1213 5.84906 27.7026 6.06244 28.2343C5.12221 28.6589 4.21508 29.2824 3.42524 30.0565C0.911474 32.5201 0.401026 38.5239 0.380518 38.7783C0.358057 39.0574 0.461377 39.3323 0.663427 39.5303C0.847313 39.7104 1.09604 39.8106 1.35386 39.8106C1.37944 39.8106 1.40513 39.8097 1.43081 39.8076C1.69038 39.7876 7.81693 39.2874 10.3307 36.8239C11.1202 36.0502 11.7564 35.1613 12.1897 34.24C12.7641 34.4614 13.3553 34.4887 13.8869 34.3552C15.4352 33.9656 17.0276 33.4344 18.6293 32.7747L18.9713 33.1099C19.0751 33.8844 19.1978 36.2551 17.2366 38.1769C16.9574 38.4506 16.8738 38.8622 17.025 39.2197C17.1761 39.5774 17.5321 39.8105 17.9272 39.8105C21.7924 39.8105 27.1962 37.5547 29.1864 33.9102C30.0508 32.3276 30.6392 29.8238 28.7625 26.6992C29.5581 26.0402 30.3244 25.3511 31.0472 24.6427C34.2719 21.4826 36.8033 17.392 38.5715 12.4847C40.7804 6.35995 40.9917 1.20768 40.9996 0.991396C41.0093 0.72582 40.9059 0.468284 40.7142 0.280323ZM2.56059 20.5534C3.16723 17.6762 4.92924 14.5191 7.31986 13.2652C8.91741 12.4274 10.6636 12.5095 12.5202 13.5055C10.9385 15.5442 9.56341 17.7406 8.41722 20.0599C8.40267 20.0511 8.22689 19.8345 7.90033 19.7624C7.76605 19.7326 5.18217 19.188 2.56059 20.5534ZM8.94964 35.4704C7.60687 36.7863 4.45697 37.4803 2.46606 37.7637C2.75532 35.8125 3.46362 32.7257 4.80629 31.4099C5.55824 30.673 6.43011 30.1143 7.30648 29.7996L10.5928 33.0202C10.2717 33.879 9.70169 34.7335 8.94964 35.4704ZM13.4018 32.501C13.1192 32.5719 12.7918 32.4678 12.5485 32.2297C11.2851 30.9916 10.7908 30.5072 10.6358 30.3554C10.3514 30.0767 9.65403 29.3933 8.11371 27.8836C7.87015 27.6445 7.7639 27.3238 7.83607 27.0473C8.14886 25.8535 8.55794 24.6287 9.0554 23.3921L17.1311 31.3063C15.8691 31.7939 14.6195 32.1947 13.4018 32.501ZM27.4646 33.0071C26.1852 35.3498 22.9637 37.0767 20.0279 37.6711C20.964 35.9449 21.1703 33.7475 20.8283 32.415C20.7489 32.1055 20.5429 31.9499 20.5314 31.9316C22.8979 30.8083 25.139 29.4607 27.2194 27.9106C28.2357 29.7303 28.3194 31.4418 27.4646 33.0071ZM29.6664 23.2893C28.7864 24.1516 27.8389 24.9847 26.85 25.7653C24.4729 27.6411 21.8564 29.23 19.065 30.4948L9.88343 21.497C11.1741 18.7612 12.7953 16.1972 14.7092 13.8678C15.5065 12.8981 16.3565 11.9694 17.236 11.1075C20.1291 8.27219 23.8629 6.01571 28.3367 4.39143L36.5195 12.4106C34.8623 16.7948 32.5597 20.4539 29.6664 23.2893ZM37.2221 10.3921L30.3964 3.70285C34.1152 2.57088 37.3505 2.14701 38.9653 1.99465C38.8097 3.57748 38.3771 6.74802 37.2221 10.3921Z" fill="#60E1CB"/>
</svg>
