<svg width="41" height="41" viewBox="0 0 41 41" fill="none" xmlns="http://www.w3.org/2000/svg">
<path d="M40.714 0.614308C40.5222 0.426443 40.2605 0.324615 39.9884 0.334664C39.7676 0.342416 34.5103 0.549517 28.2608 2.71422C23.253 4.44702 19.0789 6.92793 15.8544 10.088C15.1318 10.7961 14.4287 11.547 13.7559 12.3271C10.5677 10.4879 8.01278 11.0646 6.39764 11.9117C2.6788 13.8621 0.376953 19.1579 0.376953 22.9458C0.377246 23.3328 0.615234 23.6819 0.980077 23.8299C1.10088 23.879 1.22783 23.9029 1.35361 23.9029C1.60781 23.9029 1.85752 23.8055 2.04433 23.6225C4.00556 21.7005 6.4246 21.8207 7.21483 21.9226L7.55682 22.2577C6.88378 23.8272 6.34159 25.388 5.94393 26.9059C5.80038 27.4552 5.84882 28.0365 6.0622 28.5683C5.12196 28.9929 4.21484 29.6164 3.42499 30.3905C0.91123 32.854 0.400782 38.8579 0.380274 39.1123C0.357813 39.3914 0.461133 39.6663 0.663183 39.8643C0.847069 40.0444 1.0958 40.1446 1.35361 40.1446C1.3792 40.1446 1.40488 40.1436 1.43056 40.1416C1.69013 40.1216 7.81668 39.6214 10.3304 37.1579C11.12 36.3841 11.7561 35.4953 12.1894 34.574C12.7638 34.7954 13.3551 34.8227 13.8867 34.6891C15.4349 34.2995 17.0273 33.7684 18.6291 33.1087L18.9711 33.4439C19.0749 34.2184 19.1975 36.589 17.2364 38.5109C16.9572 38.7846 16.8736 39.1962 17.0248 39.5537C17.1758 39.9114 17.5319 40.1445 17.9269 40.1445C21.7921 40.1445 27.1959 37.8887 29.1862 34.2442C30.0505 32.6616 30.639 30.1578 28.7622 27.0332C29.5578 26.3742 30.3242 25.6851 31.047 24.9767C34.2716 21.8166 36.803 17.726 38.5712 12.8187C40.7802 6.69393 40.9914 1.54167 40.9993 1.32538C41.0091 1.0598 40.9057 0.802268 40.714 0.614308ZM2.56035 20.8873C3.16699 18.0102 4.92899 14.8531 7.31961 13.5992C8.91717 12.7614 10.6634 12.8435 12.52 13.8395C10.9383 15.8782 9.56317 18.0745 8.41698 20.3939C8.40243 20.3851 8.22664 20.1685 7.90008 20.0964C7.7658 20.0666 5.18192 19.522 2.56035 20.8873ZM8.9494 35.8044C7.60663 37.1203 4.45673 37.8143 2.46582 38.0977C2.75507 36.1465 3.46337 33.0597 4.80605 31.7439C5.558 31.007 6.42987 30.4483 7.30624 30.1336L10.5926 33.3542C10.2715 34.213 9.70145 35.0675 8.9494 35.8044ZM13.4015 32.835C13.1189 32.9059 12.7916 32.8018 12.5482 32.5637C11.2848 31.3256 10.7906 30.8412 10.6355 30.6893C10.3512 30.4107 9.65379 29.7272 8.11346 28.2176C7.86991 27.9785 7.76366 27.6578 7.83582 27.3813C8.14862 26.1875 8.5577 24.9627 9.05516 23.7261L17.1308 31.6402C15.8688 32.1278 14.6192 32.5287 13.4015 32.835ZM27.4644 33.3411C26.1849 35.6838 22.9634 37.4107 20.0277 38.0051C20.9637 36.2789 21.1701 34.0814 20.8281 32.749C20.7487 32.4395 20.5426 32.2838 20.5311 32.2656C22.8976 31.1423 25.1387 29.7947 27.2192 28.2446C28.2355 30.0643 28.3192 31.7758 27.4644 33.3411ZM29.6662 23.6233C28.7862 24.4856 27.8386 25.3187 26.8498 26.0993C24.4726 27.9751 21.8562 29.564 19.0648 30.8288L9.88318 21.831C11.1738 19.0952 12.7951 16.5311 14.709 14.2018C15.5062 13.2321 16.3562 12.3034 17.2358 11.4415C20.1289 8.60617 23.8626 6.34969 28.3365 4.72542L36.5193 12.7446C34.862 17.1288 32.5595 20.7879 29.6662 23.6233ZM37.2219 10.7261L30.3961 4.03684C34.115 2.90486 37.3502 2.48099 38.9651 2.32863C38.8095 3.91147 38.3769 7.08201 37.2219 10.7261Z" fill="#60E1CB"/>
</svg>
