<svg width="46" height="39" viewBox="0 0 46 39" fill="none" xmlns="http://www.w3.org/2000/svg">
<path d="M44.6069 4.40529C43.5623 1.75354 42.4373 0.869629 37.9373 0.869629C35.2051 0.869629 33.1158 2.95888 33.1158 5.69104C33.1158 7.13746 33.9194 8.50354 34.723 9.94996C34.9641 10.5125 35.3658 11.075 35.6069 11.6375L35.9283 12.2803C36.6516 13.7267 37.1337 14.7714 37.1337 16.941C37.1337 17.825 36.9729 18.7893 36.5712 20.1553V20.2356L33.9194 28.191L27.0327 8.67862C27.2657 8.64856 27.4988 8.61719 27.7319 8.58388C29.0177 8.58388 30.0623 7.45888 30.0623 6.17312C30.0623 4.80704 29.0176 3.76237 27.6515 3.76237C27.5712 3.76237 27.5712 3.76237 27.4908 3.76237C24.3568 4.24454 21.2229 4.24454 18.089 3.76237C18.0087 3.76237 18.0087 3.76237 17.9283 3.76237C16.5622 3.76237 15.5175 4.80704 15.5175 6.17312C15.5176 7.45888 16.5623 8.58388 17.848 8.58388C18.1172 8.62422 18.3892 8.6614 18.6622 8.6969L21.9462 17.0214L17.9283 28.8339L10.6956 8.59759C10.7225 8.59293 10.7495 8.58871 10.7765 8.58388C12.0623 8.50354 13.1068 7.45888 13.1068 6.17312C13.1068 4.80704 12.0622 3.76237 10.6961 3.76237C10.6158 3.76237 10.6158 3.76237 10.5353 3.76237C7.96392 4.24454 5.3925 4.24454 2.82108 3.76237C2.74075 3.76237 2.74075 3.76237 2.66033 3.76237C1.29442 3.76246 0.249756 4.80713 0.249756 6.17312C0.249756 7.43638 1.25839 8.46619 2.51312 8.57808L12.3837 35.5839C12.9462 37.1106 14.1515 38.2356 15.7587 38.6375C16.1604 38.7178 16.4819 38.7982 16.8837 38.7982C18.8926 38.7982 20.8212 37.4321 21.464 35.5035L26.0443 21.8428L30.8658 35.5035C31.2675 36.6285 32.0711 37.4321 32.955 37.7535C33.7586 38.075 34.6425 37.9946 35.4461 37.5928C36.4908 37.191 37.2943 36.307 37.6158 35.2625L43.5623 17.4231C44.9283 13.9678 45.2498 10.9142 45.2498 8.98562V7.69987C45.2498 6.57496 45.089 5.44996 44.6069 4.40529ZM17.9283 6.97671C17.4462 6.97671 17.1248 6.65529 17.1248 6.17312C17.1248 5.77138 17.4462 5.36954 17.848 5.36954C21.1427 5.93204 24.3569 5.93204 27.7319 5.36954C28.1337 5.36954 28.4552 5.77129 28.4552 6.17312C28.4552 6.65529 28.1338 6.97671 27.6516 6.97671C27.5713 6.97671 27.5713 6.97671 27.4908 6.97671C27.0127 7.05027 26.5347 7.11118 26.0566 7.16233C25.9766 7.14581 25.892 7.13746 25.8033 7.13746C23.6337 7.37854 21.4641 7.37854 19.2944 7.13746C19.2929 7.13746 19.2913 7.13764 19.2899 7.13764C18.8896 7.09176 18.4893 7.03832 18.0891 6.97671C18.0087 6.97671 18.0087 6.97671 17.9283 6.97671ZM1.85692 6.17312C1.85692 5.77138 2.17834 5.36954 2.58018 5.36954C5.31234 5.93204 8.04442 5.93204 10.7766 5.36954C11.1783 5.36954 11.4998 5.77129 11.4998 6.17312C11.4998 6.65529 11.1784 6.97671 10.6963 6.97671C10.6159 6.97671 10.6159 6.97671 10.5355 6.97671C10.203 7.03902 9.87053 7.09299 9.53804 7.13922C9.52239 7.13851 9.50675 7.13746 9.49084 7.13746C9.35663 7.15891 9.22198 7.17868 9.08707 7.19731C7.21148 7.41695 5.33599 7.37881 3.4604 7.08543C3.40802 7.07585 3.35563 7.06715 3.30334 7.05713C3.29631 7.05713 3.28928 7.05774 3.28225 7.05783C3.12853 7.03243 2.97489 7.00562 2.82117 6.9768C2.74084 6.9768 2.74084 6.9768 2.66042 6.9768C2.17834 6.97671 1.85692 6.65529 1.85692 6.17312ZM43.5623 9.06604C43.5623 10.8339 43.3212 13.7268 42.0355 16.941L36.0088 34.7803C35.7677 35.4231 35.2855 35.9053 34.6427 36.1464C34.2409 36.3071 33.8391 36.3875 33.4373 36.2267C32.9552 36.066 32.4731 35.5839 32.232 34.941L26.607 19.191C26.5267 18.8695 26.2053 18.6285 25.8838 18.6285C25.5623 18.6285 25.2409 18.8695 25.1605 19.191L19.9373 34.941C19.4551 36.4678 17.7676 37.4321 16.1605 37.0303C15.1158 36.7892 14.3123 36.066 13.9105 35.0214L4.35495 8.84403C5.12944 8.93271 5.90385 8.98571 6.67834 8.98571C7.48298 8.98571 8.28762 8.92885 9.09217 8.83375L17.2854 31.566C17.3658 31.8875 17.6872 32.1285 18.0087 32.1285C18.3301 32.1285 18.6515 31.8875 18.7319 31.566L23.5533 17.2625C23.6337 17.1017 23.6337 16.8607 23.5533 16.7L20.5259 8.89246C21.2737 8.95117 22.0201 8.98571 22.7498 8.98571C23.618 8.98571 24.5102 8.93764 25.4128 8.85642L33.2765 30.9232C33.3568 31.2446 33.6783 31.4857 33.9998 31.4857C34.3213 31.4857 34.6426 31.2446 34.723 30.9232L38.098 20.8785C38.1783 20.7982 38.1783 20.7982 38.1783 20.7178C38.6605 19.191 38.8212 17.9856 38.8212 17.0214C38.8212 14.45 38.1783 13.1642 37.4551 11.6375L37.1337 10.9946C36.8123 10.4321 36.4908 9.7893 36.1694 9.2268C35.4462 8.02138 34.8033 6.81604 34.8033 5.77138C34.8033 3.68213 36.4908 2.55713 38.0176 2.55713C42.1962 2.55713 42.5176 3.36071 43.0801 5.04821C43.4015 5.8518 43.5623 6.73571 43.5623 7.69996V9.06604Z" fill="#60E1CB"/>
</svg>
