<svg width="42" height="46" viewBox="0 0 42 46" fill="none" xmlns="http://www.w3.org/2000/svg">
<path d="M37.8025 6.18595H37.2686C38.2863 4.52898 37.9105 2.30443 36.2771 1.09253C34.5171 -0.213151 32.0161 0.207133 30.7878 2.04261L28.0153 6.18604H4.19767C2.23994 6.18604 0.647217 7.77876 0.647217 9.73649V32.4359C0.647217 34.3936 2.23994 35.9864 4.19767 35.9864H17.9887L16.9467 40.363H14.6977C13.2319 40.363 12.0395 41.5553 12.0395 43.0211V43.5761H9.26701C8.7816 43.5761 8.38812 43.9697 8.38812 44.455C8.38812 44.9403 8.7816 45.3339 9.26701 45.3339H32.7333C33.2187 45.3339 33.6121 44.9403 33.6121 44.455C33.6121 43.9697 33.2187 43.5761 32.7333 43.5761H29.9608V43.0211C29.9608 41.5553 28.7683 40.363 27.3026 40.363H25.0536L24.0116 35.9864H37.8026C39.7603 35.9864 41.3531 34.3936 41.3531 32.4359V27.4412V9.7364C41.3531 7.77867 39.7603 6.18595 37.8025 6.18595ZM25.2096 21.6367C23.8355 22.5987 21.2611 21.2912 18.8027 22.603C18.2029 19.4869 18.581 16.5562 21.7033 15.9094C22.1068 15.8253 22.5412 15.7872 22.9111 15.7946C23.9678 16.5786 25.0367 17.3717 26.0905 18.1536C26.5519 19.4955 26.3787 20.8184 25.2096 21.6367ZM26.0954 12.2161L28.5832 14.0619L26.67 16.3946C25.8823 15.8102 25.2052 15.3079 24.4176 14.7234C24.5811 14.479 25.9459 12.4394 26.0954 12.2161ZM32.2488 3.02019C32.9145 2.0252 34.2721 1.7937 35.2297 2.50429C36.1877 3.21496 36.3593 4.58128 35.6002 5.50683C34.2533 7.14886 31.0512 11.053 29.6992 12.7013L27.0739 10.7535L32.2488 3.02019ZM28.2029 43.0211V43.5761H13.7972V43.0211C13.7972 42.5247 14.2012 42.1207 14.6977 42.1207H27.3025C27.799 42.1207 28.2029 42.5247 28.2029 43.0211ZM23.2466 40.363H18.7536L19.7956 35.9864H22.2046L23.2466 40.363ZM39.5953 32.4359C39.5953 33.4244 38.7911 34.2286 37.8026 34.2286C36.4075 34.2286 5.76639 34.2286 4.19775 34.2286C3.20927 34.2286 2.40508 33.4244 2.40508 32.4359V28.3201H4.9166C5.40201 28.3201 5.79549 27.9265 5.79549 27.4412C5.79549 26.9559 5.40201 26.5623 4.9166 26.5623H2.40491V9.7364C2.40491 8.74791 3.20909 7.94373 4.19758 7.94373H26.8391C25.9971 9.20203 23.5407 12.873 22.7626 14.0357C21.0403 14.0512 19.3207 14.6512 18.195 15.9654C16.6632 17.7534 16.3941 20.5631 17.3952 24.3161C17.5663 24.9579 18.367 25.1878 18.8516 24.725C21.1241 22.5535 23.9545 24.9221 26.4891 22.8706C28.0363 21.6182 28.4024 19.6272 27.819 17.7653C28.6077 16.8038 35.0843 8.90752 35.8748 7.94373H37.8024C38.7909 7.94373 39.5951 8.74791 39.5951 9.7364V26.5622H11.9475C11.4621 26.5622 11.0686 26.9558 11.0686 27.4411C11.0686 27.9264 11.4621 28.32 11.9475 28.32H39.5953V32.4359Z" fill="#60E1CB"/>
</svg>
