<svg width="315" height="375" viewBox="0 0 315 375" fill="none" xmlns="http://www.w3.org/2000/svg">
<g opacity="0.1">
<path d="M180.196 349.472C145.975 360.592 109.111 360.592 74.8893 349.472C40.6675 338.353 10.8443 316.685 -10.306 287.574C-31.4562 258.464 -42.8477 223.404 -42.8477 187.421C-42.8477 151.439 -31.4562 116.379 -10.306 87.2685C10.8443 58.1577 40.6675 36.4899 74.8893 25.3705C109.111 14.2512 145.975 14.2512 180.196 25.3705C214.418 36.4898 244.241 58.1577 265.392 87.2685C286.542 116.379 297.933 151.439 297.933 187.421" stroke="#60E1CB" stroke-width="4"/>
<path d="M155.633 55.2679C183.541 61.2 208.855 75.8148 227.946 97.0179C247.037 118.221 258.926 144.924 261.909 173.299C264.891 201.674 258.814 230.265 244.548 254.974C230.282 279.683 208.56 299.242 182.495 310.847C156.43 322.451 127.361 325.507 99.4528 319.575C71.5447 313.643 46.231 299.028 27.1397 277.825C8.04836 256.622 -3.84046 229.919 -6.82281 201.544C-9.80517 173.168 -3.72797 144.577 10.5378 119.868" stroke="#60E1CB" stroke-width="4"/>
<path d="M60.3673 262.028C44.612 247.842 33.7523 229.032 29.3444 208.294C24.9365 187.557 27.2068 165.956 35.8299 146.588C44.453 127.221 58.9863 111.08 77.3467 100.479C95.7071 89.879 116.952 85.3632 138.037 87.5793C159.121 89.7954 178.963 98.6295 194.718 112.816C210.474 127.002 221.333 145.811 225.741 166.549C230.149 187.286 227.879 208.887 219.256 228.255C210.633 247.623 196.099 263.763 177.739 274.364" stroke="#60E1CB" stroke-width="4"/>
</g>
</svg>
