<svg width="1206" height="533" viewBox="0 0 1206 533" fill="none" xmlns="http://www.w3.org/2000/svg">
<g filter="url(#filter0_d_134_148)">
<rect x="90.269" y="0.864258" width="1025.46" height="344.349" rx="12" fill="#FDFDFF"/>
</g>
<path d="M178.041 194.335L171.849 206.767L171.057 194.335H168.225L169.425 211.351H172.425L178.833 198.487L180.249 211.351H183.105L191.097 194.335H188.097L182.433 206.863L181.017 194.335H178.041ZM191.782 204.223C192.19 202.855 193.294 201.631 195.046 201.631C196.822 201.631 197.422 202.855 197.422 203.863C197.422 203.983 197.398 204.175 197.398 204.223H191.782ZM199.798 206.263C199.966 205.735 200.134 204.919 200.134 204.127C200.134 201.319 198.334 199.303 195.118 199.303C191.926 199.303 188.782 201.967 188.782 206.359C188.782 209.743 191.23 211.711 194.134 211.711C196.726 211.711 198.526 210.343 199.318 208.807L197.182 207.631C196.726 208.519 195.742 209.335 194.206 209.335C192.598 209.335 191.446 208.183 191.446 206.527C191.446 206.431 191.446 206.383 191.47 206.263H199.798ZM209.036 208.711C209.036 210.439 210.212 211.495 212.108 211.495C212.804 211.495 213.284 211.351 213.5 211.255L213.956 209.023C213.668 209.071 213.428 209.095 213.14 209.095C212.18 209.095 211.868 208.663 211.868 208.111C211.868 207.967 211.892 207.775 211.94 207.583L213.092 202.135H215.396L215.924 199.663H213.596L214.388 196.087H211.868L211.508 197.767C211.244 198.943 210.524 199.663 209.18 199.663H208.748L208.22 202.135H210.332L209.228 207.295C209.084 207.919 209.036 208.423 209.036 208.711ZM225.05 202.495L225.65 199.615C225.41 199.567 225.122 199.543 224.81 199.543C223.682 199.543 222.17 199.927 221.282 201.271C221.402 200.815 221.45 199.999 221.45 199.663H218.762C218.762 199.759 218.738 200.575 218.498 201.679L216.458 211.351H219.194L220.37 205.879C220.946 203.239 222.434 202.375 224.066 202.375C224.378 202.375 224.714 202.423 225.05 202.495ZM228.736 195.679C228.736 196.567 229.408 197.287 230.368 197.287C231.376 197.287 232.36 196.447 232.36 195.295C232.36 194.407 231.688 193.711 230.728 193.711C229.696 193.711 228.736 194.575 228.736 195.679ZM228.592 211.351L231.088 199.663H228.328L225.832 211.351H228.592ZM235.446 204.223C235.854 202.855 236.958 201.631 238.71 201.631C240.486 201.631 241.086 202.855 241.086 203.863C241.086 203.983 241.062 204.175 241.062 204.223H235.446ZM243.462 206.263C243.63 205.735 243.798 204.919 243.798 204.127C243.798 201.319 241.998 199.303 238.782 199.303C235.59 199.303 232.446 201.967 232.446 206.359C232.446 209.743 234.894 211.711 237.798 211.711C240.39 211.711 242.19 210.343 242.982 208.807L240.846 207.631C240.39 208.519 239.406 209.335 237.87 209.335C236.262 209.335 235.11 208.183 235.11 206.527C235.11 206.431 235.11 206.383 235.134 206.263H243.462ZM259.018 193.975H256.258L254.77 201.007C254.338 200.239 253.282 199.351 251.29 199.351C247.81 199.351 245.266 202.519 245.266 206.407C245.266 209.335 246.946 211.567 249.922 211.567C251.386 211.567 252.466 210.775 253.138 209.911C253.114 210.127 253.09 210.415 253.09 210.751C253.09 210.895 253.09 211.135 253.114 211.351H255.682C255.658 211.183 255.658 210.847 255.658 210.775C255.658 210.247 255.73 209.527 255.922 208.567L259.018 193.975ZM251.506 201.799C253.114 201.799 253.954 202.927 253.954 204.511C253.954 207.295 252.418 209.191 250.546 209.191C248.938 209.191 248.05 208.039 248.05 206.335C248.05 204.223 249.25 201.799 251.506 201.799ZM264.848 207.727C264.848 209.119 265.712 211.711 269.36 211.711C272.432 211.711 273.776 209.623 273.776 207.943C273.776 206.551 272.96 205.351 271.256 204.607L269.72 203.935C269.216 203.719 268.904 203.359 268.904 202.783C268.904 202.063 269.504 201.463 270.488 201.463C272.024 201.463 272.432 202.567 272.48 203.287L274.904 202.783C274.832 201.511 273.944 199.303 270.632 199.303C267.968 199.303 266.264 201.127 266.264 203.143C266.264 204.511 266.984 205.591 268.568 206.287L270.056 206.935C270.752 207.247 271.04 207.703 271.04 208.183C271.04 208.855 270.512 209.527 269.384 209.527C267.968 209.527 267.248 208.495 267.248 207.271L264.848 207.727ZM278.993 204.223C279.401 202.855 280.505 201.631 282.257 201.631C284.033 201.631 284.633 202.855 284.633 203.863C284.633 203.983 284.609 204.175 284.609 204.223H278.993ZM287.009 206.263C287.177 205.735 287.345 204.919 287.345 204.127C287.345 201.319 285.545 199.303 282.329 199.303C279.137 199.303 275.993 201.967 275.993 206.359C275.993 209.743 278.441 211.711 281.345 211.711C283.937 211.711 285.737 210.343 286.529 208.807L284.393 207.631C283.937 208.519 282.953 209.335 281.417 209.335C279.809 209.335 278.657 208.183 278.657 206.527C278.657 206.431 278.657 206.383 278.681 206.263H287.009ZM300.584 199.663H297.488L292.952 208.015L291.8 199.663H288.944L291.008 211.351H293.744L300.584 199.663ZM303.227 204.223C303.635 202.855 304.739 201.631 306.491 201.631C308.267 201.631 308.867 202.855 308.867 203.863C308.867 203.983 308.843 204.175 308.843 204.223H303.227ZM311.243 206.263C311.411 205.735 311.579 204.919 311.579 204.127C311.579 201.319 309.779 199.303 306.563 199.303C303.371 199.303 300.227 201.967 300.227 206.359C300.227 209.743 302.675 211.711 305.579 211.711C308.171 211.711 309.971 210.343 310.763 208.807L308.627 207.631C308.171 208.519 307.187 209.335 305.651 209.335C304.043 209.335 302.891 208.183 302.891 206.527C302.891 206.431 302.891 206.383 302.915 206.263H311.243ZM321.495 202.495L322.095 199.615C321.855 199.567 321.567 199.543 321.255 199.543C320.127 199.543 318.615 199.927 317.727 201.271C317.847 200.815 317.895 199.999 317.895 199.663H315.207C315.207 199.759 315.183 200.575 314.943 201.679L312.903 211.351H315.639L316.815 205.879C317.391 203.239 318.879 202.375 320.511 202.375C320.823 202.375 321.159 202.423 321.495 202.495ZM328.545 201.799C330.153 201.799 330.993 202.927 330.993 204.511C330.993 207.295 329.457 209.191 327.585 209.191C325.977 209.191 325.089 208.039 325.089 206.335C325.089 204.223 326.289 201.799 328.545 201.799ZM332.145 199.663L331.833 201.055C331.449 200.311 330.417 199.351 328.329 199.351C324.849 199.351 322.305 202.519 322.305 206.407C322.305 209.335 323.985 211.567 326.961 211.567C328.425 211.567 329.505 210.775 330.177 209.911C330.129 210.439 330.129 210.583 330.129 210.871C330.129 211.015 330.129 211.135 330.153 211.351H332.745C332.721 211.087 332.721 210.895 332.721 210.775C332.721 210.007 332.817 209.287 332.961 208.567L334.857 199.663H332.145ZM338.654 211.351L342.35 193.975H339.59L335.894 211.351H338.654ZM354.959 201.799C356.567 201.799 357.407 202.927 357.407 204.511C357.407 207.295 355.871 209.191 353.999 209.191C352.391 209.191 351.503 208.039 351.503 206.335C351.503 204.223 352.703 201.799 354.959 201.799ZM358.559 199.663L358.247 201.055C357.863 200.311 356.831 199.351 354.743 199.351C351.263 199.351 348.719 202.519 348.719 206.407C348.719 209.335 350.399 211.567 353.375 211.567C354.839 211.567 355.919 210.775 356.591 209.911C356.543 210.439 356.543 210.583 356.543 210.871C356.543 211.015 356.543 211.135 356.567 211.351H359.159C359.135 211.087 359.135 210.895 359.135 210.775C359.135 210.007 359.231 209.287 359.375 208.567L361.271 199.663H358.559ZM371.213 204.391C371.213 206.887 369.821 208.423 367.925 208.423C366.221 208.423 365.333 207.247 365.333 205.663C365.333 203.311 366.773 201.847 368.669 201.847C370.373 201.847 371.213 203.095 371.213 204.391ZM361.133 211.903C361.133 214.039 362.789 216.271 366.269 216.271C370.373 216.271 372.197 213.367 372.845 210.295L375.053 199.663H372.293L372.005 201.103C371.453 200.143 370.229 199.423 368.477 199.423C365.021 199.423 362.549 202.255 362.549 205.855C362.549 208.615 364.325 210.727 367.301 210.727C368.693 210.727 369.725 210.127 370.205 209.455L370.013 210.319C369.509 212.551 368.333 213.871 366.269 213.871C364.901 213.871 363.653 213.079 363.653 211.351L361.133 211.903ZM379.258 204.223C379.666 202.855 380.77 201.631 382.522 201.631C384.298 201.631 384.898 202.855 384.898 203.863C384.898 203.983 384.874 204.175 384.874 204.223H379.258ZM387.274 206.263C387.442 205.735 387.61 204.919 387.61 204.127C387.61 201.319 385.81 199.303 382.594 199.303C379.402 199.303 376.258 201.967 376.258 206.359C376.258 209.743 378.706 211.711 381.61 211.711C384.202 211.711 386.002 210.343 386.794 208.807L384.658 207.631C384.202 208.519 383.218 209.335 381.682 209.335C380.074 209.335 378.922 208.183 378.922 206.527C378.922 206.431 378.922 206.383 378.946 206.263H387.274ZM399.111 211.351L400.647 204.247C400.743 203.839 400.791 203.335 400.791 202.951C400.791 200.815 399.447 199.327 397.263 199.327C395.967 199.327 394.647 199.759 393.807 200.887C393.903 200.431 393.927 199.807 393.927 199.663H391.239C391.239 199.759 391.215 200.575 390.975 201.679L388.935 211.351H391.695L393.159 204.559C393.471 203.143 394.383 201.799 395.967 201.799C397.239 201.799 397.935 202.519 397.935 203.695C397.935 203.911 397.887 204.175 397.839 204.439L396.351 211.351H399.111ZM414.096 203.119C413.712 201.343 412.32 199.303 409.128 199.303C405.624 199.303 402.624 202.087 402.624 206.263C402.624 209.383 404.76 211.711 408.096 211.711C410.856 211.711 412.608 210.007 413.472 208.207L411.168 207.271C410.664 208.231 409.8 209.215 408.24 209.215C406.536 209.215 405.384 208.063 405.384 206.215C405.384 203.287 407.184 201.823 408.936 201.823C410.52 201.823 411.336 202.831 411.576 203.911L414.096 203.119ZM417.83 195.679C417.83 196.567 418.502 197.287 419.462 197.287C420.47 197.287 421.454 196.447 421.454 195.295C421.454 194.407 420.782 193.711 419.822 193.711C418.79 193.711 417.83 194.575 417.83 195.679ZM417.686 211.351L420.182 199.663H417.422L414.926 211.351H417.686ZM424.54 204.223C424.948 202.855 426.052 201.631 427.804 201.631C429.58 201.631 430.18 202.855 430.18 203.863C430.18 203.983 430.156 204.175 430.156 204.223H424.54ZM432.556 206.263C432.724 205.735 432.892 204.919 432.892 204.127C432.892 201.319 431.092 199.303 427.876 199.303C424.684 199.303 421.54 201.967 421.54 206.359C421.54 209.743 423.988 211.711 426.892 211.711C429.484 211.711 431.284 210.343 432.076 208.807L429.94 207.631C429.484 208.519 428.5 209.335 426.964 209.335C425.356 209.335 424.204 208.183 424.204 206.527C424.204 206.431 424.204 206.383 424.228 206.263H432.556ZM433.856 207.727C433.856 209.119 434.72 211.711 438.368 211.711C441.44 211.711 442.784 209.623 442.784 207.943C442.784 206.551 441.968 205.351 440.264 204.607L438.728 203.935C438.224 203.719 437.912 203.359 437.912 202.783C437.912 202.063 438.512 201.463 439.496 201.463C441.032 201.463 441.44 202.567 441.488 203.287L443.912 202.783C443.84 201.511 442.952 199.303 439.64 199.303C436.976 199.303 435.272 201.127 435.272 203.143C435.272 204.511 435.992 205.591 437.576 206.287L439.064 206.935C439.76 207.247 440.048 207.703 440.048 208.183C440.048 208.855 439.52 209.527 438.392 209.527C436.976 209.527 436.256 208.495 436.256 207.271L433.856 207.727ZM453.562 211.351L453.946 209.599C454.426 210.727 455.77 211.663 457.546 211.663C461.146 211.663 463.714 208.519 463.714 204.367C463.714 201.607 462.202 199.375 459.178 199.375C457.81 199.375 456.586 199.831 455.866 200.623L457.258 193.975H454.522L450.874 211.351H453.562ZM458.194 201.799C459.874 201.799 460.906 202.831 460.906 204.727C460.906 207.607 459.034 209.191 457.33 209.191C455.746 209.191 454.714 207.991 454.714 206.239C454.714 203.599 456.298 201.799 458.194 201.799ZM468.204 204.223C468.612 202.855 469.716 201.631 471.468 201.631C473.244 201.631 473.844 202.855 473.844 203.863C473.844 203.983 473.82 204.175 473.82 204.223H468.204ZM476.22 206.263C476.388 205.735 476.556 204.919 476.556 204.127C476.556 201.319 474.756 199.303 471.54 199.303C468.348 199.303 465.204 201.967 465.204 206.359C465.204 209.743 467.652 211.711 470.556 211.711C473.148 211.711 474.948 210.343 475.74 208.807L473.604 207.631C473.148 208.519 472.164 209.335 470.628 209.335C469.02 209.335 467.868 208.183 467.868 206.527C467.868 206.431 467.868 206.383 467.892 206.263H476.22ZM485.472 202.063L485.976 199.663H483.408L483.768 198.031C484.032 196.783 484.752 196.303 485.712 196.303C486.288 196.303 486.672 196.519 486.696 196.519C486.696 196.519 486.72 196.519 486.72 196.495L487.224 194.191C487.056 194.095 486.384 193.831 485.472 193.831C483.696 193.831 481.704 194.527 481.08 197.527L480.624 199.663H478.632L478.128 202.063H480.096L478.128 211.351H480.936L482.904 202.063H485.472ZM492.281 201.799C493.937 201.823 494.945 202.951 494.945 204.799C494.945 207.703 493.169 209.215 491.441 209.215C489.857 209.215 488.777 208.039 488.777 206.191C488.777 203.527 490.409 201.799 492.281 201.799ZM497.753 204.703C497.753 201.703 495.833 199.303 492.473 199.303C488.873 199.303 485.993 202.207 485.993 206.287C485.993 209.287 488.009 211.711 491.297 211.711C495.041 211.711 497.753 208.567 497.753 204.703ZM507.613 202.495L508.213 199.615C507.973 199.567 507.685 199.543 507.373 199.543C506.245 199.543 504.733 199.927 503.845 201.271C503.965 200.815 504.013 199.999 504.013 199.663H501.325C501.325 199.759 501.301 200.575 501.061 201.679L499.021 211.351H501.757L502.933 205.879C503.509 203.239 504.997 202.375 506.629 202.375C506.941 202.375 507.277 202.423 507.613 202.495ZM511.352 204.223C511.76 202.855 512.864 201.631 514.616 201.631C516.392 201.631 516.992 202.855 516.992 203.863C516.992 203.983 516.968 204.175 516.968 204.223H511.352ZM519.368 206.263C519.536 205.735 519.704 204.919 519.704 204.127C519.704 201.319 517.904 199.303 514.688 199.303C511.496 199.303 508.352 201.967 508.352 206.359C508.352 209.743 510.8 211.711 513.704 211.711C516.296 211.711 518.096 210.343 518.888 208.807L516.752 207.631C516.296 208.519 515.312 209.335 513.776 209.335C512.168 209.335 511.016 208.183 511.016 206.527C511.016 206.431 511.016 206.383 511.04 206.263H519.368ZM535.662 199.663L531.486 207.679L530.814 199.663H528.15L529.302 211.351H532.182L536.526 202.999L537.582 211.351H540.366L546.462 199.663H543.534L539.574 207.703L538.59 199.663H535.662ZM549.18 204.223C549.588 202.855 550.692 201.631 552.444 201.631C554.22 201.631 554.82 202.855 554.82 203.863C554.82 203.983 554.796 204.175 554.796 204.223H549.18ZM557.196 206.263C557.364 205.735 557.532 204.919 557.532 204.127C557.532 201.319 555.732 199.303 552.516 199.303C549.324 199.303 546.18 201.967 546.18 206.359C546.18 209.743 548.628 211.711 551.532 211.711C554.124 211.711 555.924 210.343 556.716 208.807L554.58 207.631C554.124 208.519 553.14 209.335 551.604 209.335C549.996 209.335 548.844 208.183 548.844 206.527C548.844 206.431 548.844 206.383 548.868 206.263H557.196ZM573.058 202.063L573.562 199.663H570.994L571.354 198.031C571.618 196.783 572.338 196.303 573.298 196.303C573.874 196.303 574.258 196.519 574.282 196.519C574.282 196.519 574.306 196.519 574.306 196.495L574.81 194.191C574.642 194.095 573.97 193.831 573.058 193.831C571.282 193.831 569.29 194.527 568.666 197.527L568.21 199.663H566.218L565.714 202.063H567.682L565.714 211.351H568.522L570.49 202.063H573.058ZM579.867 201.799C581.523 201.823 582.531 202.951 582.531 204.799C582.531 207.703 580.755 209.215 579.027 209.215C577.443 209.215 576.363 208.039 576.363 206.191C576.363 203.527 577.995 201.799 579.867 201.799ZM585.339 204.703C585.339 201.703 583.419 199.303 580.059 199.303C576.459 199.303 573.579 202.207 573.579 206.287C573.579 209.287 575.595 211.711 578.883 211.711C582.627 211.711 585.339 208.567 585.339 204.703ZM588.837 199.663L587.373 206.503C587.277 206.959 587.229 207.391 587.229 207.799C587.229 210.031 588.597 211.615 591.045 211.615C592.125 211.615 593.373 211.111 594.045 210.079C594.021 210.295 594.021 210.487 594.021 210.655C594.021 210.967 594.045 211.207 594.069 211.351H596.757C596.733 211.087 596.733 210.967 596.733 210.823C596.733 210.079 596.853 209.407 596.997 208.687L598.869 199.663H596.133L594.693 206.479C594.381 207.943 593.469 209.215 591.981 209.215C590.613 209.215 590.061 208.423 590.061 207.319C590.061 207.031 590.109 206.719 590.181 206.383L591.621 199.663H588.837ZM610.189 211.351L611.725 204.247C611.821 203.839 611.869 203.335 611.869 202.951C611.869 200.815 610.525 199.327 608.341 199.327C607.045 199.327 605.725 199.759 604.885 200.887C604.981 200.431 605.005 199.807 605.005 199.663H602.317C602.317 199.759 602.293 200.575 602.053 201.679L600.013 211.351H602.773L604.237 204.559C604.549 203.143 605.461 201.799 607.045 201.799C608.317 201.799 609.013 202.519 609.013 203.695C609.013 203.911 608.965 204.175 608.917 204.439L607.429 211.351H610.189ZM627.526 193.975H624.766L623.278 201.007C622.846 200.239 621.79 199.351 619.798 199.351C616.318 199.351 613.774 202.519 613.774 206.407C613.774 209.335 615.454 211.567 618.43 211.567C619.894 211.567 620.974 210.775 621.646 209.911C621.622 210.127 621.598 210.415 621.598 210.751C621.598 210.895 621.598 211.135 621.622 211.351H624.19C624.166 211.183 624.166 210.847 624.166 210.775C624.166 210.247 624.238 209.527 624.43 208.567L627.526 193.975ZM620.014 201.799C621.622 201.799 622.462 202.927 622.462 204.511C622.462 207.295 620.926 209.191 619.054 209.191C617.446 209.191 616.558 208.039 616.558 206.335C616.558 204.223 617.758 201.799 620.014 201.799ZM647.612 193.975H644.852L643.364 201.007C642.932 200.239 641.876 199.351 639.884 199.351C636.404 199.351 633.86 202.519 633.86 206.407C633.86 209.335 635.54 211.567 638.516 211.567C639.98 211.567 641.06 210.775 641.732 209.911C641.708 210.127 641.684 210.415 641.684 210.751C641.684 210.895 641.684 211.135 641.708 211.351H644.276C644.252 211.183 644.252 210.847 644.252 210.775C644.252 210.247 644.324 209.527 644.516 208.567L647.612 193.975ZM640.1 201.799C641.708 201.799 642.548 202.927 642.548 204.511C642.548 207.295 641.012 209.191 639.14 209.191C637.532 209.191 636.644 208.039 636.644 206.335C636.644 204.223 637.844 201.799 640.1 201.799ZM653.928 201.799C655.536 201.799 656.376 202.927 656.376 204.511C656.376 207.295 654.84 209.191 652.968 209.191C651.36 209.191 650.472 208.039 650.472 206.335C650.472 204.223 651.672 201.799 653.928 201.799ZM657.528 199.663L657.216 201.055C656.832 200.311 655.8 199.351 653.712 199.351C650.232 199.351 647.688 202.519 647.688 206.407C647.688 209.335 649.368 211.567 652.344 211.567C653.808 211.567 654.888 210.775 655.56 209.911C655.512 210.439 655.512 210.583 655.512 210.871C655.512 211.015 655.512 211.135 655.536 211.351H658.128C658.104 211.087 658.104 210.895 658.104 210.775C658.104 210.007 658.2 209.287 658.344 208.567L660.24 199.663H657.528ZM671.261 193.975C666.701 193.975 662.069 197.551 662.069 204.055C662.069 208.519 665.093 211.711 669.437 211.711C673.469 211.711 676.013 209.359 677.189 206.551L674.645 205.519C673.733 207.559 672.125 208.999 669.701 208.999C666.797 208.999 665.021 206.983 665.021 203.887C665.021 199.855 667.493 196.687 671.045 196.687C673.781 196.687 675.173 198.415 675.557 200.263L678.317 199.423C677.789 196.663 675.677 193.975 671.261 193.975ZM684.89 201.799C686.546 201.823 687.554 202.951 687.554 204.799C687.554 207.703 685.778 209.215 684.05 209.215C682.466 209.215 681.386 208.039 681.386 206.191C681.386 203.527 683.018 201.799 684.89 201.799ZM690.362 204.703C690.362 201.703 688.442 199.303 685.082 199.303C681.482 199.303 678.602 202.207 678.602 206.287C678.602 209.287 680.618 211.711 683.906 211.711C687.65 211.711 690.362 208.567 690.362 204.703ZM705.573 193.975H702.813L701.325 201.007C700.893 200.239 699.837 199.351 697.845 199.351C694.365 199.351 691.821 202.519 691.821 206.407C691.821 209.335 693.501 211.567 696.477 211.567C697.941 211.567 699.021 210.775 699.693 209.911C699.669 210.127 699.645 210.415 699.645 210.751C699.645 210.895 699.645 211.135 699.669 211.351H702.237C702.213 211.183 702.213 210.847 702.213 210.775C702.213 210.247 702.285 209.527 702.477 208.567L705.573 193.975ZM698.061 201.799C699.669 201.799 700.509 202.927 700.509 204.511C700.509 207.295 698.973 209.191 697.101 209.191C695.493 209.191 694.605 208.039 694.605 206.335C694.605 204.223 695.805 201.799 698.061 201.799ZM708.579 204.223C708.987 202.855 710.091 201.631 711.843 201.631C713.619 201.631 714.219 202.855 714.219 203.863C714.219 203.983 714.195 204.175 714.195 204.223H708.579ZM716.595 206.263C716.763 205.735 716.931 204.919 716.931 204.127C716.931 201.319 715.131 199.303 711.915 199.303C708.723 199.303 705.579 201.967 705.579 206.359C705.579 209.743 708.027 211.711 710.931 211.711C713.523 211.711 715.323 210.343 716.115 208.807L713.979 207.631C713.523 208.519 712.539 209.335 711.003 209.335C709.395 209.335 708.243 208.183 708.243 206.527C708.243 206.431 708.243 206.383 708.267 206.263H716.595ZM720.007 211.495C721.183 211.495 722.167 210.535 722.167 209.335C722.167 208.399 721.495 207.607 720.391 207.607C719.191 207.607 718.207 208.591 718.207 209.743C718.207 210.679 718.927 211.495 720.007 211.495ZM744.372 211.351L747.972 194.335H745.068L743.58 201.367H736.236L737.724 194.335H734.844L731.244 211.351H734.124L735.66 204.079H743.004L741.468 211.351H744.372ZM754.592 201.799C756.2 201.799 757.04 202.927 757.04 204.511C757.04 207.295 755.504 209.191 753.632 209.191C752.024 209.191 751.136 208.039 751.136 206.335C751.136 204.223 752.336 201.799 754.592 201.799ZM758.192 199.663L757.88 201.055C757.496 200.311 756.464 199.351 754.376 199.351C750.896 199.351 748.352 202.519 748.352 206.407C748.352 209.335 750.032 211.567 753.008 211.567C754.472 211.567 755.552 210.775 756.224 209.911C756.176 210.439 756.176 210.583 756.176 210.871C756.176 211.015 756.176 211.135 756.2 211.351H758.792C758.768 211.087 758.768 210.895 758.768 210.775C758.768 210.007 758.864 209.287 759.008 208.567L760.904 199.663H758.192ZM761.629 207.727C761.629 209.119 762.493 211.711 766.141 211.711C769.213 211.711 770.557 209.623 770.557 207.943C770.557 206.551 769.741 205.351 768.037 204.607L766.501 203.935C765.997 203.719 765.685 203.359 765.685 202.783C765.685 202.063 766.285 201.463 767.269 201.463C768.805 201.463 769.213 202.567 769.261 203.287L771.685 202.783C771.613 201.511 770.725 199.303 767.413 199.303C764.749 199.303 763.045 201.127 763.045 203.143C763.045 204.511 763.765 205.591 765.349 206.287L766.837 206.935C767.533 207.247 767.821 207.703 767.821 208.183C767.821 208.855 767.293 209.527 766.165 209.527C764.749 209.527 764.029 208.495 764.029 207.271L761.629 207.727ZM781.336 211.351L781.72 209.599C782.2 210.727 783.544 211.663 785.32 211.663C788.92 211.663 791.488 208.519 791.488 204.367C791.488 201.607 789.976 199.375 786.952 199.375C785.584 199.375 784.36 199.831 783.64 200.623L785.032 193.975H782.296L778.648 211.351H781.336ZM785.968 201.799C787.648 201.799 788.68 202.831 788.68 204.727C788.68 207.607 786.808 209.191 785.104 209.191C783.52 209.191 782.488 207.991 782.488 206.239C782.488 203.599 784.072 201.799 785.968 201.799ZM795.977 204.223C796.385 202.855 797.489 201.631 799.241 201.631C801.017 201.631 801.617 202.855 801.617 203.863C801.617 203.983 801.593 204.175 801.593 204.223H795.977ZM803.993 206.263C804.161 205.735 804.329 204.919 804.329 204.127C804.329 201.319 802.529 199.303 799.313 199.303C796.121 199.303 792.977 201.967 792.977 206.359C792.977 209.743 795.425 211.711 798.329 211.711C800.921 211.711 802.721 210.343 803.513 208.807L801.377 207.631C800.921 208.519 799.937 209.335 798.401 209.335C796.793 209.335 795.641 208.183 795.641 206.527C795.641 206.431 795.641 206.383 795.665 206.263H803.993ZM808.797 204.223C809.205 202.855 810.309 201.631 812.061 201.631C813.837 201.631 814.437 202.855 814.437 203.863C814.437 203.983 814.413 204.175 814.413 204.223H808.797ZM816.813 206.263C816.981 205.735 817.149 204.919 817.149 204.127C817.149 201.319 815.349 199.303 812.133 199.303C808.941 199.303 805.797 201.967 805.797 206.359C805.797 209.743 808.245 211.711 811.149 211.711C813.741 211.711 815.541 210.343 816.333 208.807L814.197 207.631C813.741 208.519 812.757 209.335 811.221 209.335C809.613 209.335 808.461 208.183 808.461 206.527C808.461 206.431 808.461 206.383 808.485 206.263H816.813ZM828.65 211.351L830.186 204.247C830.282 203.839 830.33 203.335 830.33 202.951C830.33 200.815 828.986 199.327 826.802 199.327C825.506 199.327 824.186 199.759 823.346 200.887C823.442 200.431 823.466 199.807 823.466 199.663H820.778C820.778 199.759 820.754 200.575 820.514 201.679L818.474 211.351H821.234L822.698 204.559C823.01 203.143 823.922 201.799 825.506 201.799C826.778 201.799 827.474 202.519 827.474 203.695C827.474 203.911 827.426 204.175 827.378 204.439L825.89 211.351H828.65ZM844.78 201.799C846.388 201.799 847.228 202.927 847.228 204.511C847.228 207.295 845.692 209.191 843.82 209.191C842.212 209.191 841.324 208.039 841.324 206.335C841.324 204.223 842.524 201.799 844.78 201.799ZM848.38 199.663L848.068 201.055C847.684 200.311 846.652 199.351 844.564 199.351C841.084 199.351 838.54 202.519 838.54 206.407C838.54 209.335 840.22 211.567 843.196 211.567C844.66 211.567 845.74 210.775 846.412 209.911C846.364 210.439 846.364 210.583 846.364 210.871C846.364 211.015 846.364 211.135 846.388 211.351H848.98C848.956 211.087 848.956 210.895 848.956 210.775C848.956 210.007 849.052 209.287 849.196 208.567L851.092 199.663H848.38ZM865.563 201.847C867.171 201.847 868.227 202.855 868.227 204.727C868.227 207.607 866.379 209.191 864.699 209.191C863.115 209.191 862.059 208.135 862.059 206.239C862.059 203.599 863.667 201.847 865.563 201.847ZM863.067 200.935C863.139 200.479 863.163 199.807 863.163 199.663H860.475C860.475 199.759 860.451 200.575 860.211 201.679L857.187 215.911H859.923L861.219 209.767C861.843 210.871 863.235 211.663 864.915 211.663C868.491 211.663 871.035 208.519 871.035 204.367C871.035 201.583 869.571 199.375 866.547 199.375C865.155 199.375 863.811 199.975 863.067 200.935ZM875.092 211.351L878.788 193.975H876.028L872.332 211.351H875.092ZM881.829 204.223C882.237 202.855 883.341 201.631 885.093 201.631C886.869 201.631 887.469 202.855 887.469 203.863C887.469 203.983 887.445 204.175 887.445 204.223H881.829ZM889.845 206.263C890.013 205.735 890.181 204.919 890.181 204.127C890.181 201.319 888.381 199.303 885.165 199.303C881.973 199.303 878.829 201.967 878.829 206.359C878.829 209.743 881.277 211.711 884.181 211.711C886.773 211.711 888.573 210.343 889.365 208.807L887.229 207.631C886.773 208.519 885.789 209.335 884.253 209.335C882.645 209.335 881.493 208.183 881.493 206.527C881.493 206.431 881.493 206.383 881.517 206.263H889.845ZM897.889 201.799C899.497 201.799 900.337 202.927 900.337 204.511C900.337 207.295 898.801 209.191 896.929 209.191C895.321 209.191 894.433 208.039 894.433 206.335C894.433 204.223 895.633 201.799 897.889 201.799ZM901.489 199.663L901.177 201.055C900.793 200.311 899.761 199.351 897.673 199.351C894.193 199.351 891.649 202.519 891.649 206.407C891.649 209.335 893.329 211.567 896.305 211.567C897.769 211.567 898.849 210.775 899.521 209.911C899.473 210.439 899.473 210.583 899.473 210.871C899.473 211.015 899.473 211.135 899.497 211.351H902.089C902.065 211.087 902.065 210.895 902.065 210.775C902.065 210.007 902.161 209.287 902.305 208.567L904.201 199.663H901.489ZM904.926 207.727C904.926 209.119 905.79 211.711 909.438 211.711C912.51 211.711 913.854 209.623 913.854 207.943C913.854 206.551 913.038 205.351 911.334 204.607L909.798 203.935C909.294 203.719 908.982 203.359 908.982 202.783C908.982 202.063 909.582 201.463 910.566 201.463C912.102 201.463 912.51 202.567 912.558 203.287L914.982 202.783C914.91 201.511 914.022 199.303 910.71 199.303C908.046 199.303 906.342 201.127 906.342 203.143C906.342 204.511 907.062 205.591 908.646 206.287L910.134 206.935C910.83 207.247 911.118 207.703 911.118 208.183C911.118 208.855 910.59 209.527 909.462 209.527C908.046 209.527 907.326 208.495 907.326 207.271L904.926 207.727ZM918.111 199.663L916.647 206.503C916.551 206.959 916.503 207.391 916.503 207.799C916.503 210.031 917.871 211.615 920.319 211.615C921.399 211.615 922.647 211.111 923.319 210.079C923.295 210.295 923.295 210.487 923.295 210.655C923.295 210.967 923.319 211.207 923.343 211.351H926.031C926.007 211.087 926.007 210.967 926.007 210.823C926.007 210.079 926.127 209.407 926.271 208.687L928.143 199.663H925.407L923.967 206.479C923.655 207.943 922.743 209.215 921.255 209.215C919.887 209.215 919.335 208.423 919.335 207.319C919.335 207.031 919.383 206.719 919.455 206.383L920.895 199.663H918.111ZM937.878 202.495L938.478 199.615C938.238 199.567 937.95 199.543 937.638 199.543C936.51 199.543 934.998 199.927 934.11 201.271C934.23 200.815 934.278 199.999 934.278 199.663H931.59C931.59 199.759 931.566 200.575 931.326 201.679L929.286 211.351H932.022L933.198 205.879C933.774 203.239 935.262 202.375 936.894 202.375C937.206 202.375 937.542 202.423 937.878 202.495ZM941.618 204.223C942.026 202.855 943.13 201.631 944.882 201.631C946.658 201.631 947.258 202.855 947.258 203.863C947.258 203.983 947.234 204.175 947.234 204.223H941.618ZM949.634 206.263C949.802 205.735 949.97 204.919 949.97 204.127C949.97 201.319 948.17 199.303 944.954 199.303C941.762 199.303 938.618 201.967 938.618 206.359C938.618 209.743 941.066 211.711 943.97 211.711C946.562 211.711 948.362 210.343 949.154 208.807L947.018 207.631C946.562 208.519 945.578 209.335 944.042 209.335C942.434 209.335 941.282 208.183 941.282 206.527C941.282 206.431 941.282 206.383 941.306 206.263H949.634ZM958.872 208.711C958.872 210.439 960.048 211.495 961.944 211.495C962.64 211.495 963.12 211.351 963.336 211.255L963.792 209.023C963.504 209.071 963.264 209.095 962.976 209.095C962.016 209.095 961.704 208.663 961.704 208.111C961.704 207.967 961.728 207.775 961.776 207.583L962.928 202.135H965.232L965.76 199.663H963.432L964.224 196.087H961.704L961.344 197.767C961.08 198.943 960.36 199.663 959.016 199.663H958.584L958.056 202.135H960.168L959.064 207.295C958.92 207.919 958.872 208.423 958.872 208.711ZM972.445 201.799C974.101 201.823 975.109 202.951 975.109 204.799C975.109 207.703 973.333 209.215 971.605 209.215C970.021 209.215 968.941 208.039 968.941 206.191C968.941 203.527 970.573 201.799 972.445 201.799ZM977.917 204.703C977.917 201.703 975.997 199.303 972.637 199.303C969.037 199.303 966.157 202.207 966.157 206.287C966.157 209.287 968.173 211.711 971.461 211.711C975.205 211.711 977.917 208.567 977.917 204.703ZM993.865 199.663L989.689 207.679L989.017 199.663H986.353L987.505 211.351H990.385L994.729 202.999L995.785 211.351H998.569L1004.67 199.663H1001.74L997.777 207.703L996.793 199.663H993.865ZM1010.67 201.799C1012.33 201.823 1013.34 202.951 1013.34 204.799C1013.34 207.703 1011.56 209.215 1009.83 209.215C1008.25 209.215 1007.17 208.039 1007.17 206.191C1007.17 203.527 1008.8 201.799 1010.67 201.799ZM1016.14 204.703C1016.14 201.703 1014.22 199.303 1010.86 199.303C1007.26 199.303 1004.38 202.207 1004.38 206.287C1004.38 209.287 1006.4 211.711 1009.69 211.711C1013.43 211.711 1016.14 208.567 1016.14 204.703ZM1026 202.495L1026.6 199.615C1026.36 199.567 1026.08 199.543 1025.76 199.543C1024.64 199.543 1023.12 199.927 1022.24 201.271C1022.36 200.815 1022.4 199.999 1022.4 199.663H1019.72C1019.72 199.759 1019.69 200.575 1019.45 201.679L1017.41 211.351H1020.15L1021.32 205.879C1021.9 203.239 1023.39 202.375 1025.02 202.375C1025.33 202.375 1025.67 202.423 1026 202.495ZM1034.73 211.351H1037.8L1034.44 204.511L1040.23 199.663H1036.29L1031.11 204.079L1033.27 193.975H1030.51L1026.83 211.351H1029.57L1030.27 208.015L1032.33 206.287L1034.73 211.351ZM268.24 242.663L264.064 250.679L263.392 242.663H260.728L261.88 254.351H264.76L269.104 245.999L270.16 254.351H272.944L279.04 242.663H276.112L272.152 250.703L271.168 242.663H268.24ZM281.634 238.679C281.634 239.567 282.306 240.287 283.266 240.287C284.274 240.287 285.258 239.447 285.258 238.295C285.258 237.407 284.586 236.711 283.626 236.711C282.594 236.711 281.634 237.575 281.634 238.679ZM281.49 254.351L283.986 242.663H281.226L278.73 254.351H281.49ZM286.286 251.711C286.286 253.439 287.462 254.495 289.358 254.495C290.054 254.495 290.534 254.351 290.75 254.255L291.206 252.023C290.918 252.071 290.678 252.095 290.39 252.095C289.43 252.095 289.118 251.663 289.118 251.111C289.118 250.967 289.142 250.775 289.19 250.583L290.342 245.135H292.646L293.174 242.663H290.846L291.638 239.087H289.118L288.758 240.767C288.494 241.943 287.774 242.663 286.43 242.663H285.998L285.47 245.135H287.582L286.478 250.295C286.334 250.919 286.286 251.423 286.286 251.711ZM303.72 254.351L305.28 247.127C305.352 246.839 305.4 246.335 305.4 245.903C305.4 243.767 304.056 242.327 301.776 242.327C300.528 242.327 299.376 242.711 298.584 243.623L300 236.975H297.216L293.544 254.351H296.304L297.768 247.559C298.08 246.143 298.992 244.799 300.576 244.799C301.848 244.799 302.544 245.519 302.544 246.695C302.544 246.911 302.496 247.175 302.448 247.439L300.96 254.351H303.72ZM319.85 244.799C321.458 244.799 322.298 245.927 322.298 247.511C322.298 250.295 320.762 252.191 318.89 252.191C317.282 252.191 316.394 251.039 316.394 249.335C316.394 247.223 317.594 244.799 319.85 244.799ZM323.45 242.663L323.138 244.055C322.754 243.311 321.722 242.351 319.634 242.351C316.154 242.351 313.61 245.519 313.61 249.407C313.61 252.335 315.29 254.567 318.266 254.567C319.73 254.567 320.81 253.775 321.482 252.911C321.434 253.439 321.434 253.583 321.434 253.871C321.434 254.015 321.434 254.135 321.458 254.351H324.05C324.026 254.087 324.026 253.895 324.026 253.775C324.026 253.007 324.122 252.287 324.266 251.567L326.162 242.663H323.45ZM337.423 254.351L338.959 247.247C339.055 246.839 339.103 246.335 339.103 245.951C339.103 243.815 337.759 242.327 335.575 242.327C334.279 242.327 332.959 242.759 332.119 243.887C332.215 243.431 332.239 242.807 332.239 242.663H329.551C329.551 242.759 329.527 243.575 329.287 244.679L327.247 254.351H330.007L331.471 247.559C331.783 246.143 332.695 244.799 334.279 244.799C335.551 244.799 336.247 245.519 336.247 246.695C336.247 246.911 336.199 247.175 336.151 247.439L334.663 254.351H337.423ZM354.76 236.975H352L350.512 244.007C350.08 243.239 349.024 242.351 347.032 242.351C343.552 242.351 341.008 245.519 341.008 249.407C341.008 252.335 342.688 254.567 345.664 254.567C347.128 254.567 348.208 253.775 348.88 252.911C348.856 253.127 348.832 253.415 348.832 253.751C348.832 253.895 348.832 254.135 348.856 254.351H351.424C351.4 254.183 351.4 253.847 351.4 253.775C351.4 253.247 351.472 252.527 351.664 251.567L354.76 236.975ZM347.248 244.799C348.856 244.799 349.696 245.927 349.696 247.511C349.696 250.295 348.16 252.191 346.288 252.191C344.68 252.191 343.792 251.039 343.792 249.335C343.792 247.223 344.992 244.799 347.248 244.799ZM369.326 242.663L365.15 250.679L364.478 242.663H361.814L362.966 254.351H365.846L370.19 245.999L371.246 254.351H374.03L380.126 242.663H377.198L373.238 250.703L372.254 242.663H369.326ZM382.72 238.679C382.72 239.567 383.392 240.287 384.352 240.287C385.36 240.287 386.344 239.447 386.344 238.295C386.344 237.407 385.672 236.711 384.712 236.711C383.68 236.711 382.72 237.575 382.72 238.679ZM382.576 254.351L385.072 242.663H382.312L379.816 254.351H382.576ZM388.998 254.351L392.694 236.975H389.934L386.238 254.351H388.998ZM395.373 254.351L399.069 236.975H396.309L392.613 254.351H395.373ZM404.934 250.727C404.934 252.119 405.798 254.711 409.446 254.711C412.518 254.711 413.862 252.623 413.862 250.943C413.862 249.551 413.046 248.351 411.342 247.607L409.806 246.935C409.302 246.719 408.99 246.359 408.99 245.783C408.99 245.063 409.59 244.463 410.574 244.463C412.11 244.463 412.518 245.567 412.566 246.287L414.99 245.783C414.918 244.511 414.03 242.303 410.718 242.303C408.054 242.303 406.35 244.127 406.35 246.143C406.35 247.511 407.07 248.591 408.654 249.287L410.142 249.935C410.838 250.247 411.126 250.703 411.126 251.183C411.126 251.855 410.598 252.527 409.47 252.527C408.054 252.527 407.334 251.495 407.334 250.271L404.934 250.727ZM422.367 244.799C424.023 244.823 425.031 245.951 425.031 247.799C425.031 250.703 423.255 252.215 421.527 252.215C419.943 252.215 418.863 251.039 418.863 249.191C418.863 246.527 420.495 244.799 422.367 244.799ZM427.839 247.703C427.839 244.703 425.919 242.303 422.559 242.303C418.959 242.303 416.079 245.207 416.079 249.287C416.079 252.287 418.095 254.711 421.383 254.711C425.127 254.711 427.839 251.567 427.839 247.703ZM435.585 244.799C437.241 244.823 438.249 245.951 438.249 247.799C438.249 250.703 436.473 252.215 434.745 252.215C433.161 252.215 432.081 251.039 432.081 249.191C432.081 246.527 433.713 244.799 435.585 244.799ZM441.057 247.703C441.057 244.703 439.137 242.303 435.777 242.303C432.177 242.303 429.297 245.207 429.297 249.287C429.297 252.287 431.313 254.711 434.601 254.711C438.345 254.711 441.057 251.567 441.057 247.703ZM452.501 254.351L454.037 247.247C454.133 246.839 454.181 246.335 454.181 245.951C454.181 243.815 452.837 242.327 450.653 242.327C449.357 242.327 448.037 242.759 447.197 243.887C447.293 243.431 447.317 242.807 447.317 242.663H444.629C444.629 242.759 444.605 243.575 444.365 244.679L442.325 254.351H445.085L446.549 247.559C446.861 246.143 447.773 244.799 449.357 244.799C450.629 244.799 451.325 245.519 451.325 246.695C451.325 246.911 451.277 247.175 451.229 247.439L449.741 254.351H452.501ZM461.887 250.727C461.887 252.119 462.751 254.711 466.399 254.711C469.471 254.711 470.815 252.623 470.815 250.943C470.815 249.551 469.999 248.351 468.295 247.607L466.759 246.935C466.255 246.719 465.943 246.359 465.943 245.783C465.943 245.063 466.543 244.463 467.527 244.463C469.063 244.463 469.471 245.567 469.519 246.287L471.943 245.783C471.871 244.511 470.983 242.303 467.671 242.303C465.007 242.303 463.303 244.127 463.303 246.143C463.303 247.511 464.023 248.591 465.607 249.287L467.095 249.935C467.791 250.247 468.079 250.703 468.079 251.183C468.079 251.855 467.551 252.527 466.423 252.527C465.007 252.527 464.287 251.495 464.287 250.271L461.887 250.727ZM474.208 251.711C474.208 253.439 475.384 254.495 477.28 254.495C477.976 254.495 478.456 254.351 478.672 254.255L479.128 252.023C478.84 252.071 478.6 252.095 478.312 252.095C477.352 252.095 477.04 251.663 477.04 251.111C477.04 250.967 477.064 250.775 477.112 250.583L478.264 245.135H480.568L481.096 242.663H478.768L479.56 239.087H477.04L476.68 240.767C476.416 241.943 475.696 242.663 474.352 242.663H473.92L473.392 245.135H475.504L474.4 250.295C474.256 250.919 474.208 251.423 474.208 251.711ZM487.78 244.799C489.388 244.799 490.228 245.927 490.228 247.511C490.228 250.295 488.692 252.191 486.82 252.191C485.212 252.191 484.324 251.039 484.324 249.335C484.324 247.223 485.524 244.799 487.78 244.799ZM491.38 242.663L491.068 244.055C490.684 243.311 489.652 242.351 487.564 242.351C484.084 242.351 481.54 245.519 481.54 249.407C481.54 252.335 483.22 254.567 486.196 254.567C487.66 254.567 488.74 253.775 489.412 252.911C489.364 253.439 489.364 253.583 489.364 253.871C489.364 254.015 489.364 254.135 489.388 254.351H491.98C491.956 254.087 491.956 253.895 491.956 253.775C491.956 253.007 492.052 252.287 492.196 251.567L494.092 242.663H491.38ZM503.769 245.495L504.369 242.615C504.129 242.567 503.841 242.543 503.529 242.543C502.401 242.543 500.889 242.927 500.001 244.271C500.121 243.815 500.169 242.999 500.169 242.663H497.481C497.481 242.759 497.457 243.575 497.217 244.679L495.177 254.351H497.913L499.089 248.879C499.665 246.239 501.153 245.375 502.785 245.375C503.097 245.375 503.433 245.423 503.769 245.495ZM506.294 251.711C506.294 253.439 507.47 254.495 509.366 254.495C510.062 254.495 510.542 254.351 510.758 254.255L511.214 252.023C510.926 252.071 510.686 252.095 510.398 252.095C509.438 252.095 509.126 251.663 509.126 251.111C509.126 250.967 509.15 250.775 509.198 250.583L510.35 245.135H512.654L513.182 242.663H510.854L511.646 239.087H509.126L508.766 240.767C508.502 241.943 507.782 242.663 506.438 242.663H506.006L505.478 245.135H507.59L506.486 250.295C506.342 250.919 506.294 251.423 506.294 251.711ZM521.13 251.711C521.13 253.439 522.306 254.495 524.202 254.495C524.898 254.495 525.378 254.351 525.594 254.255L526.05 252.023C525.762 252.071 525.522 252.095 525.234 252.095C524.274 252.095 523.962 251.663 523.962 251.111C523.962 250.967 523.986 250.775 524.034 250.583L525.186 245.135H527.49L528.018 242.663H525.69L526.482 239.087H523.962L523.602 240.767C523.338 241.943 522.618 242.663 521.274 242.663H520.842L520.314 245.135H522.426L521.322 250.295C521.178 250.919 521.13 251.423 521.13 251.711ZM538.564 254.351L540.124 247.127C540.196 246.839 540.244 246.335 540.244 245.903C540.244 243.767 538.9 242.327 536.62 242.327C535.372 242.327 534.22 242.711 533.428 243.623L534.844 236.975H532.06L528.388 254.351H531.148L532.612 247.559C532.924 246.143 533.836 244.799 535.42 244.799C536.692 244.799 537.388 245.519 537.388 246.695C537.388 246.911 537.34 247.175 537.292 247.439L535.804 254.351H538.564ZM545.149 247.223C545.557 245.855 546.661 244.631 548.413 244.631C550.189 244.631 550.789 245.855 550.789 246.863C550.789 246.983 550.765 247.175 550.765 247.223H545.149ZM553.165 249.263C553.333 248.735 553.501 247.919 553.501 247.127C553.501 244.319 551.701 242.303 548.485 242.303C545.293 242.303 542.149 244.967 542.149 249.359C542.149 252.743 544.597 254.711 547.501 254.711C550.093 254.711 551.893 253.343 552.685 251.807L550.549 250.631C550.093 251.519 549.109 252.335 547.573 252.335C545.965 252.335 544.813 251.183 544.813 249.527C544.813 249.431 544.813 249.383 544.837 249.263H553.165ZM571.259 254.351L572.795 247.247C572.891 246.839 572.939 246.335 572.939 245.951C572.939 243.815 571.595 242.327 569.411 242.327C568.115 242.327 566.795 242.759 565.955 243.887C566.051 243.431 566.075 242.807 566.075 242.663H563.387C563.387 242.759 563.363 243.575 563.123 244.679L561.083 254.351H563.843L565.307 247.559C565.619 246.143 566.531 244.799 568.115 244.799C569.387 244.799 570.083 245.519 570.083 246.695C570.083 246.911 570.035 247.175 569.987 247.439L568.499 254.351H571.259ZM577.844 247.223C578.252 245.855 579.356 244.631 581.108 244.631C582.884 244.631 583.484 245.855 583.484 246.863C583.484 246.983 583.46 247.175 583.46 247.223H577.844ZM585.86 249.263C586.028 248.735 586.196 247.919 586.196 247.127C586.196 244.319 584.396 242.303 581.18 242.303C577.988 242.303 574.844 244.967 574.844 249.359C574.844 252.743 577.292 254.711 580.196 254.711C582.788 254.711 584.588 253.343 585.38 251.807L583.244 250.631C582.788 251.519 581.804 252.335 580.268 252.335C578.66 252.335 577.508 251.183 577.508 249.527C577.508 249.431 577.508 249.383 577.532 249.263H585.86ZM592.422 250.487L594.39 254.351H597.414C596.694 253.055 594.966 249.815 594.27 248.495C595.494 247.223 598.542 243.959 599.766 242.663H596.31L593.022 246.383C592.542 245.495 591.606 243.575 591.15 242.663H588.126L591.174 248.375L585.558 254.351H588.99L592.422 250.487ZM600.934 251.711C600.934 253.439 602.11 254.495 604.006 254.495C604.702 254.495 605.182 254.351 605.398 254.255L605.854 252.023C605.566 252.071 605.326 252.095 605.038 252.095C604.078 252.095 603.766 251.663 603.766 251.111C603.766 250.967 603.79 250.775 603.838 250.583L604.99 245.135H607.294L607.822 242.663H605.494L606.286 239.087H603.766L603.406 240.767C603.142 241.943 602.422 242.663 601.078 242.663H600.646L600.118 245.135H602.23L601.126 250.295C600.982 250.919 600.934 251.423 600.934 251.711ZM621.578 244.847C623.186 244.847 624.242 245.855 624.242 247.727C624.242 250.607 622.394 252.191 620.714 252.191C619.13 252.191 618.074 251.135 618.074 249.239C618.074 246.599 619.682 244.847 621.578 244.847ZM619.082 243.935C619.154 243.479 619.178 242.807 619.178 242.663H616.49C616.49 242.759 616.466 243.575 616.226 244.679L613.202 258.911H615.938L617.234 252.767C617.858 253.871 619.25 254.663 620.93 254.663C624.506 254.663 627.05 251.519 627.05 247.367C627.05 244.583 625.586 242.375 622.562 242.375C621.17 242.375 619.826 242.975 619.082 243.935ZM636.941 245.495L637.541 242.615C637.301 242.567 637.013 242.543 636.701 242.543C635.573 242.543 634.061 242.927 633.173 244.271C633.293 243.815 633.341 242.999 633.341 242.663H630.653C630.653 242.759 630.629 243.575 630.389 244.679L628.349 254.351H631.085L632.261 248.879C632.837 246.239 634.325 245.375 635.957 245.375C636.269 245.375 636.605 245.423 636.941 245.495ZM643.968 244.799C645.624 244.823 646.632 245.951 646.632 247.799C646.632 250.703 644.856 252.215 643.128 252.215C641.544 252.215 640.464 251.039 640.464 249.191C640.464 246.527 642.096 244.799 643.968 244.799ZM649.44 247.703C649.44 244.703 647.52 242.303 644.16 242.303C640.56 242.303 637.68 245.207 637.68 249.287C637.68 252.287 639.696 254.711 642.984 254.711C646.728 254.711 649.44 251.567 649.44 247.703ZM650.468 255.383C650.252 256.439 649.82 256.823 648.908 256.823C648.452 256.823 648.044 256.703 647.9 256.655L647.444 258.815C647.564 258.911 648.26 259.271 649.364 259.271C651.236 259.271 652.652 258.143 653.108 256.031L655.94 242.663H653.204L650.468 255.383ZM653.612 238.679C653.612 239.567 654.284 240.287 655.244 240.287C656.228 240.287 657.236 239.447 657.236 238.295C657.236 237.407 656.564 236.711 655.604 236.711C654.572 236.711 653.612 237.575 653.612 238.679ZM660.251 247.223C660.659 245.855 661.763 244.631 663.515 244.631C665.291 244.631 665.891 245.855 665.891 246.863C665.891 246.983 665.867 247.175 665.867 247.223H660.251ZM668.267 249.263C668.435 248.735 668.603 247.919 668.603 247.127C668.603 244.319 666.803 242.303 663.587 242.303C660.395 242.303 657.251 244.967 657.251 249.359C657.251 252.743 659.699 254.711 662.603 254.711C665.195 254.711 666.995 253.343 667.787 251.807L665.651 250.631C665.195 251.519 664.211 252.335 662.675 252.335C661.067 252.335 659.915 251.183 659.915 249.527C659.915 249.431 659.915 249.383 659.939 249.263H668.267ZM681.471 246.119C681.087 244.343 679.695 242.303 676.503 242.303C672.999 242.303 669.999 245.087 669.999 249.263C669.999 252.383 672.135 254.711 675.471 254.711C678.231 254.711 679.983 253.007 680.847 251.207L678.543 250.271C678.039 251.231 677.175 252.215 675.615 252.215C673.911 252.215 672.759 251.063 672.759 249.215C672.759 246.287 674.559 244.823 676.311 244.823C677.895 244.823 678.711 245.831 678.951 246.911L681.471 246.119ZM683.505 251.711C683.505 253.439 684.681 254.495 686.577 254.495C687.273 254.495 687.753 254.351 687.969 254.255L688.425 252.023C688.137 252.071 687.897 252.095 687.609 252.095C686.649 252.095 686.337 251.663 686.337 251.111C686.337 250.967 686.361 250.775 686.409 250.583L687.561 245.135H689.865L690.393 242.663H688.065L688.857 239.087H686.337L685.977 240.767C685.713 241.943 684.993 242.663 683.649 242.663H683.217L682.689 245.135H684.801L683.697 250.295C683.553 250.919 683.505 251.423 683.505 251.711ZM705.397 242.663L701.221 250.679L700.549 242.663H697.885L699.037 254.351H701.917L706.261 245.999L707.317 254.351H710.101L716.197 242.663H713.269L709.309 250.703L708.325 242.663H705.397ZM718.791 238.679C718.791 239.567 719.463 240.287 720.423 240.287C721.431 240.287 722.415 239.447 722.415 238.295C722.415 237.407 721.743 236.711 720.783 236.711C719.751 236.711 718.791 237.575 718.791 238.679ZM718.647 254.351L721.143 242.663H718.383L715.887 254.351H718.647ZM723.442 251.711C723.442 253.439 724.618 254.495 726.514 254.495C727.21 254.495 727.69 254.351 727.906 254.255L728.362 252.023C728.074 252.071 727.834 252.095 727.546 252.095C726.586 252.095 726.274 251.663 726.274 251.111C726.274 250.967 726.298 250.775 726.346 250.583L727.498 245.135H729.802L730.33 242.663H728.002L728.794 239.087H726.274L725.914 240.767C725.65 241.943 724.93 242.663 723.586 242.663H723.154L722.626 245.135H724.738L723.634 250.295C723.49 250.919 723.442 251.423 723.442 251.711ZM740.876 254.351L742.436 247.127C742.508 246.839 742.556 246.335 742.556 245.903C742.556 243.767 741.212 242.327 738.932 242.327C737.684 242.327 736.532 242.711 735.74 243.623L737.156 236.975H734.372L730.7 254.351H733.46L734.924 247.559C735.236 246.143 736.148 244.799 737.732 244.799C739.004 244.799 739.7 245.519 739.7 246.695C739.7 246.911 739.652 247.175 739.604 247.439L738.116 254.351H740.876ZM757.054 244.799C758.71 244.823 759.718 245.951 759.718 247.799C759.718 250.703 757.942 252.215 756.214 252.215C754.63 252.215 753.55 251.039 753.55 249.191C753.55 246.527 755.182 244.799 757.054 244.799ZM762.526 247.703C762.526 244.703 760.606 242.303 757.246 242.303C753.646 242.303 750.766 245.207 750.766 249.287C750.766 252.287 752.782 254.711 756.07 254.711C759.814 254.711 762.526 251.567 762.526 247.703ZM766.025 242.663L764.561 249.503C764.465 249.959 764.417 250.391 764.417 250.799C764.417 253.031 765.785 254.615 768.233 254.615C769.313 254.615 770.561 254.111 771.233 253.079C771.209 253.295 771.209 253.487 771.209 253.655C771.209 253.967 771.233 254.207 771.257 254.351H773.945C773.921 254.087 773.921 253.967 773.921 253.823C773.921 253.079 774.041 252.407 774.185 251.687L776.057 242.663H773.321L771.881 249.479C771.569 250.943 770.657 252.215 769.169 252.215C767.801 252.215 767.249 251.423 767.249 250.319C767.249 250.031 767.297 249.719 767.369 249.383L768.809 242.663H766.025ZM785.792 245.495L786.392 242.615C786.152 242.567 785.864 242.543 785.552 242.543C784.424 242.543 782.912 242.927 782.024 244.271C782.144 243.815 782.192 242.999 782.192 242.663H779.504C779.504 242.759 779.48 243.575 779.24 244.679L777.2 254.351H779.936L781.112 248.879C781.688 246.239 783.176 245.375 784.808 245.375C785.12 245.375 785.456 245.423 785.792 245.495ZM792.286 250.727C792.286 252.119 793.15 254.711 796.798 254.711C799.87 254.711 801.214 252.623 801.214 250.943C801.214 249.551 800.398 248.351 798.694 247.607L797.158 246.935C796.654 246.719 796.342 246.359 796.342 245.783C796.342 245.063 796.942 244.463 797.926 244.463C799.462 244.463 799.87 245.567 799.918 246.287L802.342 245.783C802.27 244.511 801.382 242.303 798.07 242.303C795.406 242.303 793.702 244.127 793.702 246.143C793.702 247.511 794.422 248.591 796.006 249.287L797.494 249.935C798.19 250.247 798.478 250.703 798.478 251.183C798.478 251.855 797.95 252.527 796.822 252.527C795.406 252.527 794.686 251.495 794.686 250.271L792.286 250.727ZM806.43 247.223C806.838 245.855 807.942 244.631 809.694 244.631C811.47 244.631 812.07 245.855 812.07 246.863C812.07 246.983 812.046 247.175 812.046 247.223H806.43ZM814.446 249.263C814.614 248.735 814.782 247.919 814.782 247.127C814.782 244.319 812.982 242.303 809.766 242.303C806.574 242.303 803.43 244.967 803.43 249.359C803.43 252.743 805.878 254.711 808.782 254.711C811.374 254.711 813.174 253.343 813.966 251.807L811.83 250.631C811.374 251.519 810.39 252.335 808.854 252.335C807.246 252.335 806.094 251.183 806.094 249.527C806.094 249.431 806.094 249.383 806.118 249.263H814.446ZM827.65 246.119C827.266 244.343 825.874 242.303 822.682 242.303C819.178 242.303 816.178 245.087 816.178 249.263C816.178 252.383 818.314 254.711 821.65 254.711C824.41 254.711 826.162 253.007 827.026 251.207L824.722 250.271C824.218 251.231 823.354 252.215 821.794 252.215C820.09 252.215 818.938 251.063 818.938 249.215C818.938 246.287 820.738 244.823 822.49 244.823C824.074 244.823 824.89 245.831 825.13 246.911L827.65 246.119ZM834.867 244.799C836.523 244.823 837.531 245.951 837.531 247.799C837.531 250.703 835.755 252.215 834.027 252.215C832.443 252.215 831.363 251.039 831.363 249.191C831.363 246.527 832.995 244.799 834.867 244.799ZM840.339 247.703C840.339 244.703 838.419 242.303 835.059 242.303C831.459 242.303 828.579 245.207 828.579 249.287C828.579 252.287 830.595 254.711 833.883 254.711C837.627 254.711 840.339 251.567 840.339 247.703ZM851.782 254.351L853.318 247.247C853.414 246.839 853.462 246.335 853.462 245.951C853.462 243.815 852.118 242.327 849.934 242.327C848.638 242.327 847.318 242.759 846.478 243.887C846.574 243.431 846.598 242.807 846.598 242.663H843.91C843.91 242.759 843.886 243.575 843.646 244.679L841.606 254.351H844.366L845.83 247.559C846.142 246.143 847.054 244.799 848.638 244.799C849.91 244.799 850.606 245.519 850.606 246.695C850.606 246.911 850.558 247.175 850.51 247.439L849.022 254.351H851.782ZM869.12 236.975H866.36L864.872 244.007C864.44 243.239 863.384 242.351 861.392 242.351C857.912 242.351 855.368 245.519 855.368 249.407C855.368 252.335 857.048 254.567 860.024 254.567C861.488 254.567 862.568 253.775 863.24 252.911C863.216 253.127 863.192 253.415 863.192 253.751C863.192 253.895 863.192 254.135 863.216 254.351H865.784C865.76 254.183 865.76 253.847 865.76 253.775C865.76 253.247 865.832 252.527 866.024 251.567L869.12 236.975ZM861.608 244.799C863.216 244.799 864.056 245.927 864.056 247.511C864.056 250.295 862.52 252.191 860.648 252.191C859.04 252.191 858.152 251.039 858.152 249.335C858.152 247.223 859.352 244.799 861.608 244.799ZM877.758 254.351L878.142 252.599C878.622 253.727 879.966 254.663 881.742 254.663C885.342 254.663 887.91 251.519 887.91 247.367C887.91 244.607 886.398 242.375 883.374 242.375C882.006 242.375 880.782 242.831 880.062 243.623L881.454 236.975H878.718L875.07 254.351H877.758ZM882.39 244.799C884.07 244.799 885.102 245.831 885.102 247.727C885.102 250.607 883.23 252.191 881.526 252.191C879.942 252.191 878.91 250.991 878.91 249.239C878.91 246.599 880.494 244.799 882.39 244.799ZM897.8 245.495L898.4 242.615C898.16 242.567 897.872 242.543 897.56 242.543C896.432 242.543 894.92 242.927 894.032 244.271C894.152 243.815 894.2 242.999 894.2 242.663H891.512C891.512 242.759 891.488 243.575 891.248 244.679L889.208 254.351H891.944L893.12 248.879C893.696 246.239 895.184 245.375 896.816 245.375C897.128 245.375 897.464 245.423 897.8 245.495ZM904.85 244.799C906.458 244.799 907.298 245.927 907.298 247.511C907.298 250.295 905.762 252.191 903.89 252.191C902.282 252.191 901.394 251.039 901.394 249.335C901.394 247.223 902.594 244.799 904.85 244.799ZM908.45 242.663L908.138 244.055C907.754 243.311 906.722 242.351 904.634 242.351C901.154 242.351 898.61 245.519 898.61 249.407C898.61 252.335 900.29 254.567 903.266 254.567C904.73 254.567 905.81 253.775 906.482 252.911C906.434 253.439 906.434 253.583 906.434 253.871C906.434 254.015 906.434 254.135 906.458 254.351H909.05C909.026 254.087 909.026 253.895 909.026 253.775C909.026 253.007 909.122 252.287 909.266 251.567L911.162 242.663H908.45ZM922.423 254.351L923.959 247.247C924.055 246.839 924.103 246.335 924.103 245.951C924.103 243.815 922.759 242.327 920.575 242.327C919.279 242.327 917.959 242.759 917.119 243.887C917.215 243.431 917.239 242.807 917.239 242.663H914.551C914.551 242.759 914.527 243.575 914.287 244.679L912.247 254.351H915.007L916.471 247.559C916.783 246.143 917.695 244.799 919.279 244.799C920.551 244.799 921.247 245.519 921.247 246.695C921.247 246.911 921.199 247.175 921.151 247.439L919.663 254.351H922.423ZM939.76 236.975H937L935.512 244.007C935.08 243.239 934.024 242.351 932.032 242.351C928.552 242.351 926.008 245.519 926.008 249.407C926.008 252.335 927.688 254.567 930.664 254.567C932.128 254.567 933.208 253.775 933.88 252.911C933.856 253.127 933.832 253.415 933.832 253.751C933.832 253.895 933.832 254.135 933.856 254.351H936.424C936.4 254.183 936.4 253.847 936.4 253.775C936.4 253.247 936.472 252.527 936.664 251.567L939.76 236.975ZM932.248 244.799C933.856 244.799 934.696 245.927 934.696 247.511C934.696 250.295 933.16 252.191 931.288 252.191C929.68 252.191 928.792 251.039 928.792 249.335C928.792 247.223 929.992 244.799 932.248 244.799ZM941.444 254.495C942.62 254.495 943.604 253.535 943.604 252.335C943.604 251.399 942.932 250.607 941.828 250.607C940.628 250.607 939.644 251.591 939.644 252.743C939.644 253.679 940.364 254.495 941.444 254.495Z" fill="#292525"/>
<path fill-rule="evenodd" clip-rule="evenodd" d="M520.482 144.431L529.583 149.921C530.252 150.325 531.079 149.727 530.903 148.971L528.491 138.624L536.519 131.674C537.1 131.164 536.8 130.196 536.008 130.126L525.428 129.228L521.291 119.481C520.992 118.759 519.971 118.759 519.672 119.481L515.535 129.228L504.955 130.126C504.18 130.196 503.863 131.164 504.462 131.674L512.489 138.624L510.078 148.971C509.902 149.727 510.729 150.325 511.398 149.921L520.482 144.431Z" fill="#FBBE36"/>
<path fill-rule="evenodd" clip-rule="evenodd" d="M603 144.431L612.101 149.921C612.77 150.325 613.598 149.727 613.422 148.971L611.01 138.624L619.037 131.674C619.618 131.164 619.319 130.196 618.527 130.126L607.947 129.228L603.81 119.481C603.511 118.759 602.49 118.759 602.19 119.481L598.053 129.228L587.473 130.126C586.699 130.196 586.382 131.164 586.981 131.674L595.008 138.624L592.596 148.971C592.42 149.727 593.248 150.325 593.916 149.921L603 144.431Z" fill="#FBBE36"/>
<path fill-rule="evenodd" clip-rule="evenodd" d="M561.741 144.431L570.842 149.921C571.511 150.325 572.339 149.727 572.163 148.971L569.751 138.624L577.778 131.674C578.359 131.164 578.06 130.196 577.268 130.126L566.688 129.228L562.551 119.481C562.252 118.759 561.231 118.759 560.931 119.481L556.794 129.228L546.214 130.126C545.44 130.196 545.123 131.164 545.722 131.674L553.749 138.624L551.337 148.971C551.161 149.727 551.989 150.325 552.657 149.921L561.741 144.431Z" fill="#FBBE36"/>
<path fill-rule="evenodd" clip-rule="evenodd" d="M644.259 144.431L653.361 149.921C654.029 150.325 654.857 149.727 654.681 148.971L652.269 138.624L660.296 131.674C660.877 131.164 660.578 130.196 659.786 130.126L649.206 129.228L645.069 119.481C644.77 118.759 643.749 118.759 643.45 119.481L639.313 129.228L628.733 130.126C627.958 130.196 627.641 131.164 628.24 131.674L636.267 138.624L633.855 148.971C633.679 149.727 634.507 150.325 635.176 149.921L644.259 144.431Z" fill="#FBBE36"/>
<path fill-rule="evenodd" clip-rule="evenodd" d="M685.518 144.431L694.62 149.921C695.289 150.325 696.116 149.727 695.94 148.971L693.528 138.624L701.556 131.674C702.136 131.164 701.837 130.196 701.045 130.126L690.465 129.228L686.328 119.481C686.029 118.759 685.008 118.759 684.709 119.481L680.572 129.228L669.992 130.126C669.217 130.196 668.9 131.164 669.499 131.674L677.526 138.624L675.115 148.971C674.938 149.727 675.766 150.325 676.435 149.921L685.518 144.431Z" fill="#FBBE36"/>
<path d="M579.984 94.9488L584.112 94.0208C584.155 95.0022 584.518 95.8342 585.2 96.5168C585.904 97.1782 586.8 97.5088 587.888 97.5088C588.912 97.5088 589.766 97.1995 590.448 96.5808C591.131 95.9622 591.472 95.1408 591.472 94.1168C591.472 92.9862 591.11 92.1222 590.384 91.5248C589.68 90.9275 588.816 90.6288 587.792 90.6288C586.491 90.6288 585.424 91.0982 584.592 92.0368C583.078 91.4608 581.734 91.0022 580.56 90.6608L583.024 80.0048H594.736V83.8128H586.032L585.008 88.3888C585.926 87.5355 587.174 87.1088 588.752 87.1088C590.886 87.1088 592.603 87.7275 593.904 88.9648C595.206 90.1808 595.856 91.8768 595.856 94.0528C595.856 96.0582 595.131 97.7648 593.68 99.1728C592.23 100.581 590.299 101.285 587.888 101.285C585.712 101.285 583.878 100.655 582.384 99.3968C580.912 98.1382 580.112 96.6555 579.984 94.9488ZM599.974 100.165C599.398 99.5888 599.11 98.8955 599.11 98.0848C599.11 97.2742 599.398 96.5915 599.974 96.0368C600.55 95.4608 601.233 95.1728 602.022 95.1728C602.833 95.1728 603.526 95.4608 604.102 96.0368C604.678 96.5915 604.966 97.2742 604.966 98.0848C604.966 98.8955 604.678 99.5888 604.102 100.165C603.526 100.719 602.833 100.997 602.022 100.997C601.233 100.997 600.55 100.719 599.974 100.165ZM613.823 85.1248C613.076 86.2982 612.703 88.0582 612.703 90.4048C612.703 92.7515 613.076 94.5115 613.823 95.6848C614.527 96.8155 615.572 97.3808 616.959 97.3808C618.324 97.3808 619.359 96.8155 620.063 95.6848C620.831 94.5328 621.215 92.7728 621.215 90.4048C621.215 88.0368 620.831 86.2768 620.063 85.1248C619.359 83.9942 618.324 83.4288 616.959 83.4288C615.572 83.4288 614.527 83.9942 613.823 85.1248ZM610.111 97.7968C608.895 95.9408 608.287 93.4768 608.287 90.4048C608.287 87.3328 608.895 84.8688 610.111 83.0128C611.668 80.6875 613.951 79.5248 616.959 79.5248C619.967 79.5248 622.239 80.6875 623.775 83.0128C625.012 84.8902 625.631 87.3542 625.631 90.4048C625.631 93.4555 625.012 95.9195 623.775 97.7968C622.239 100.122 619.967 101.285 616.959 101.285C613.951 101.285 611.668 100.122 610.111 97.7968Z" fill="black"/>
<defs>
<filter id="filter0_d_134_148" x="0.269043" y="0.864258" width="1205.46" height="531.349" filterUnits="userSpaceOnUse" color-interpolation-filters="sRGB">
<feFlood flood-opacity="0" result="BackgroundImageFix"/>
<feColorMatrix in="SourceAlpha" type="matrix" values="0 0 0 0 0 0 0 0 0 0 0 0 0 0 0 0 0 0 127 0" result="hardAlpha"/>
<feOffset dy="97"/>
<feGaussianBlur stdDeviation="45"/>
<feComposite in2="hardAlpha" operator="out"/>
<feColorMatrix type="matrix" values="0 0 0 0 0.027451 0 0 0 0 0 0 0 0 0 0.231373 0 0 0 0.12 0"/>
<feBlend mode="normal" in2="BackgroundImageFix" result="effect1_dropShadow_134_148"/>
<feBlend mode="normal" in="SourceGraphic" in2="effect1_dropShadow_134_148" result="shape"/>
</filter>
</defs>
</svg>
