<svg width="1920" height="581" viewBox="0 0 1920 581" fill="none" xmlns="http://www.w3.org/2000/svg">
<rect y="0.332031" width="1920" height="580" fill="#60E1CB"/>
<mask id="mask0_134_385" style="mask-type:alpha" maskUnits="userSpaceOnUse" x="0" y="0" width="1920" height="581">
<rect y="0.332031" width="1920" height="580" fill="#60E1CB"/>
</mask>
<g mask="url(#mask0_134_385)">
<path d="M2269.5 -240.668C2218.83 -137.335 2076.9 63.432 1914.5 39.832C1752.1 16.232 1812.83 216.999 1863.5 320.332C1910.67 447.665 1947.3 641.932 1716.5 400.332C1485.7 158.732 1227 368.999 1126.5 504.332L945 752.832" stroke="#E7E7E7" stroke-width="3"/>
<path d="M222.406 -956.388C256.276 -937.007 307.04 -872.624 239.137 -770.138C171.235 -667.652 274.37 -359.309 334.425 -217.949L520.471 210.122C545.713 269.435 609.1 359.592 660.719 245.716C712.337 131.841 454.855 118.626 319.662 126.252L-25.2056 140.832" stroke="#E7E7E7" stroke-width="3"/>
<g opacity="0.15">
<circle cx="38.5" cy="475.832" r="200.5" fill="white"/>
</g>
</g>
</svg>
